<svg width="16" height="16" viewBox="0 0 16 16" fill="none" xmlns="http://www.w3.org/2000/svg">
<path d="M8.00044 2.80078L0.703125 5.53734L8.00044 9.186L11.4761 7.44819L8.21553 6.45131C8.14839 6.48351 8.0749 6.5003 8.00044 6.50047C7.86783 6.50047 7.74065 6.44779 7.64688 6.35402C7.55312 6.26025 7.50044 6.13308 7.50044 6.00047C7.50044 5.86786 7.55312 5.74068 7.64688 5.64692C7.74065 5.55315 7.86783 5.50047 8.00044 5.50047L7.91775 5.76928L8.49703 5.9475L8.49728 5.94925L9.35209 6.21066L14.2192 7.70813V8.08769C14.1519 8.13349 14.0968 8.19503 14.0586 8.26697C14.0205 8.33892 14.0005 8.41908 14.0004 8.5005C14.0005 8.58379 14.0214 8.66573 14.0612 8.73889C14.101 8.81205 14.1585 8.87411 14.2283 8.91944C14.0008 9.77959 14.0004 11.7312 14.0004 12.5005C14.5004 12.8253 14.5004 12.8372 15.0004 12.5005C15.0004 11.7313 15.0002 9.78006 14.7726 8.91972C14.8425 8.87436 14.9 8.81224 14.9398 8.73902C14.9796 8.6658 15.0004 8.5838 15.0004 8.50047C15.0004 8.41896 14.9805 8.33869 14.9424 8.26665C14.9042 8.1946 14.8491 8.13297 14.7817 8.08713V7.29275L12.9278 6.72234L15.2978 5.53734L8.00044 2.80078ZM3.73866 7.78172L3.32856 10.2423C4.14653 10.3493 5.125 10.8248 6.0245 11.3869C6.53606 11.7067 7.01522 12.0577 7.40438 12.3982C7.64225 12.6063 7.84116 12.806 8.00044 13.0025C8.15972 12.806 8.35863 12.6063 8.5965 12.3982C8.98566 12.0577 9.46478 11.7067 9.97638 11.3869C10.8759 10.8248 11.8543 10.3493 12.6723 10.2423L12.2622 7.78172H12.0668L8.00044 9.81494L3.93397 7.78172H3.73866Z" fill="black"/>
</svg>
